# xmcd CD database file
#
# Track frame offsets:
#	150
#	16795
#	39447
#	51237
#	70080
#	89585
#	117665
#	142882
#	174365
#	189375
#	222630
#	241557
#	252225
#	272082
#
# Disc length: 4092 seconds
#
# Revision: 16
# Processed by: cddbd v1.5.2PL0 Copyright (c) Steve Scherf et al.
# Submitted via: jetAudio 7
#
DISCID=c20ffa0e
DTITLE=André Rieu - Waltzes
DYEAR=1994
DGENRE=Easy Listening
TTITLE0=Waltz No 2
TTITLE1=Strauss and Co
TTITLE2=Unter Donner und Blitz
TTITLE3=Der Drtitte Mann
TTITLE4=Komt Zigeuner
TTITLE5=Dorfschwalben aus Österreich
TTITLE6=Vilja-Lied
TTITLE7=Künstlerben
TTITLE8=Persicher Marsch
TTITLE9=Im weißen Rössl
TTITLE10=Wein, du Stadt meiner Träume
TTITLE11=Heut' kommen d'Engerln auf Urlaub nach Wien
TTITLE12=Mei' Muatterl war a Wienerin
TTITLE13=Rosen aus dem Süden
EXTD=YEAR: 1994
EXTT0=
EXTT1=
EXTT2=
EXTT3=
EXTT4=
EXTT5=
EXTT6=
EXTT7=
EXTT8=
EXTT9=
EXTT10=
EXTT11=
EXTT12=
EXTT13=
PLAYORDER=
